<?xml version="1.0" encoding="utf-8"?>
<!-- Generator: Adobe Illustrator 17.0.0, SVG Export Plug-In . SVG Version: 6.00 Build 0)  -->
<!DOCTYPE svg PUBLIC "-//W3C//DTD SVG 1.1//EN" "http://www.w3.org/Graphics/SVG/1.1/DTD/svg11.dtd">
<svg version="1.1" id="Layer_1" xmlns="http://www.w3.org/2000/svg" xmlns:xlink="http://www.w3.org/1999/xlink" x="0px" y="0px"
	 width="727.273px" height="727.273px" viewBox="0 0 727.273 727.273" enable-background="new 0 0 727.273 727.273"
	 xml:space="preserve">
<g>
	<g>
		<g>
			<g>
				<g>
					<linearGradient id="SVGID_1_" gradientUnits="userSpaceOnUse" x1="264.0935" y1="439.1528" x2="653.8256" y2="439.1528">
						<stop  offset="0" style="stop-color:#757575"/>
						<stop  offset="0.091" style="stop-color:#8A7373"/>
						<stop  offset="0.2513" style="stop-color:#AA7171"/>
						<stop  offset="0.4183" style="stop-color:#C36F6F"/>
						<stop  offset="0.5928" style="stop-color:#D46E6E"/>
						<stop  offset="0.7795" style="stop-color:#DF6D6D"/>
						<stop  offset="1" style="stop-color:#E26D6D"/>
					</linearGradient>
					<polygon fill="url(#SVGID_1_)" points="618.826,370.516 544.22,370.516 503.826,370.516 499.72,370.516 393.386,507.789 
						436.643,507.789 516.791,405.516 618.826,405.516 618.826,507.789 653.826,507.789 653.826,405.516 653.826,370.516 					"/>
					<linearGradient id="SVGID_2_" gradientUnits="userSpaceOnUse" x1="264.0935" y1="439.1528" x2="653.8256" y2="439.1528">
						<stop  offset="0" style="stop-color:#757575"/>
						<stop  offset="0.091" style="stop-color:#8A7373"/>
						<stop  offset="0.2513" style="stop-color:#AA7171"/>
						<stop  offset="0.4183" style="stop-color:#C36F6F"/>
						<stop  offset="0.5928" style="stop-color:#D46E6E"/>
						<stop  offset="0.7795" style="stop-color:#DF6D6D"/>
						<stop  offset="1" style="stop-color:#E26D6D"/>
					</linearGradient>
					<polygon fill="url(#SVGID_2_)" points="264.093,397.644 350.13,507.789 393.386,507.789 292.764,377.568 					"/>
				</g>
			</g>
		</g>
	</g>
</g>
<rect x="132.947" y="213.516" fill="#757575" width="35" height="137.273"/>
<rect x="132.947" y="370.516" fill="#757575" width="35" height="137.273"/>
<g>
	<g>
		<g>
			<g>
				<circle fill="#757575" cx="221.447" cy="308.82" r="110"/>
			</g>
		</g>
	</g>
</g>
<linearGradient id="SVGID_3_" gradientUnits="userSpaceOnUse" x1="121.4469" y1="308.8195" x2="321.447" y2="308.8195">
	<stop  offset="0" style="stop-color:#F2BBBB"/>
	<stop  offset="0.1354" style="stop-color:#EDA5A5"/>
	<stop  offset="0.3273" style="stop-color:#E88C8C"/>
	<stop  offset="0.5291" style="stop-color:#E57B7B"/>
	<stop  offset="0.745" style="stop-color:#E37070"/>
	<stop  offset="1" style="stop-color:#E26D6D"/>
</linearGradient>
<circle fill="url(#SVGID_3_)" cx="221.447" cy="308.82" r="100"/>
<linearGradient id="SVGID_4_" gradientUnits="userSpaceOnUse" x1="138.9469" y1="308.8195" x2="303.947" y2="308.8195">
	<stop  offset="0" style="stop-color:#F2BBBB"/>
	<stop  offset="0.1354" style="stop-color:#EDA5A5"/>
	<stop  offset="0.3273" style="stop-color:#E88C8C"/>
	<stop  offset="0.5291" style="stop-color:#E57B7B"/>
	<stop  offset="0.745" style="stop-color:#E37070"/>
	<stop  offset="1" style="stop-color:#E26D6D"/>
</linearGradient>
<circle fill="url(#SVGID_4_)" cx="221.447" cy="308.82" r="82.5"/>
<linearGradient id="SVGID_5_" gradientUnits="userSpaceOnUse" x1="468.803" y1="308.8195" x2="653.8257" y2="308.8195">
	<stop  offset="0" style="stop-color:#757575"/>
	<stop  offset="0.091" style="stop-color:#8A7373"/>
	<stop  offset="0.2513" style="stop-color:#AA7171"/>
	<stop  offset="0.4183" style="stop-color:#C36F6F"/>
	<stop  offset="0.5928" style="stop-color:#D46E6E"/>
	<stop  offset="0.7795" style="stop-color:#DF6D6D"/>
	<stop  offset="1" style="stop-color:#E26D6D"/>
</linearGradient>
<rect x="468.803" y="286.32" fill="url(#SVGID_5_)" width="185.023" height="45"/>
<g>
	<path fill="#FFFFFF" d="M562.314,297.416h3.681l-8.385,23.04h-2.815l-6.561-17.952l-6.527,17.952l-0.064-0.032l0.032,0.032h-2.784
		l-8.384-23.04h3.68l6.112,16.8l6.112-16.8h3.68l6.112,16.8L562.314,297.416z"/>
	<path fill="#FFFFFF" d="M572.873,297.416h14.721c1.151,0,2.133,0.406,2.943,1.216c0.811,0.811,1.216,1.792,1.216,2.944v14.72
		c0,1.152-0.405,2.134-1.216,2.944c-0.811,0.811-1.792,1.216-2.943,1.216h-14.721c-1.151,0-2.133-0.405-2.943-1.216
		c-0.812-0.811-1.217-1.792-1.217-2.944v-14.72c0-1.152,0.405-2.133,1.217-2.944C570.741,297.822,571.722,297.416,572.873,297.416z
		 M572.873,317h14.721c0.191,0,0.356-0.069,0.495-0.208c0.139-0.139,0.208-0.304,0.208-0.496v-14.72
		c0-0.192-0.069-0.357-0.208-0.496c-0.139-0.139-0.304-0.208-0.495-0.208h-14.721c-0.191,0-0.357,0.069-0.496,0.208
		c-0.139,0.139-0.208,0.304-0.208,0.496v14.72c0,0.192,0.069,0.357,0.208,0.496C572.516,316.931,572.682,317,572.873,317z"/>
	<path fill="#FFFFFF" d="M618.282,301.608v6.464c0,1.131-0.405,2.107-1.216,2.928c-0.811,0.822-1.792,1.232-2.944,1.232h-2.336
		l6.496,7.744v0.48h-4.096l-6.912-8.224h-7.872c-0.171,0-0.405-0.021-0.704-0.064v8.288h-3.456v-23.008h18.88
		c1.152,0,2.134,0.411,2.944,1.232S618.282,300.477,618.282,301.608z M599.402,308.776h14.72c0.192,0,0.357-0.069,0.496-0.208
		c0.139-0.138,0.208-0.304,0.208-0.496v-6.464c0-0.192-0.069-0.357-0.208-0.496c-0.139-0.138-0.304-0.208-0.496-0.208h-14.72
		c-0.192,0-0.357,0.069-0.496,0.208c-0.139,0.139-0.208,0.304-0.208,0.496v6.464c0,0.192,0.069,0.357,0.208,0.496
		C599.044,308.707,599.209,308.776,599.402,308.776z"/>
	<path fill="#FFFFFF" d="M639.786,297.416h4.096v0.48l-9.248,11.04l9.248,11.04v0.48h-4.096l-8.225-9.792h-6.399v9.792h-3.456
		v-23.04h3.456v9.792h6.399L639.786,297.416z"/>
</g>
<circle fill="#757575" cx="468.803" cy="308.82" r="37.5"/>
<rect x="73.447" y="370.516" fill="#757575" width="35" height="137.273"/>
</svg>
